<?xml version="1.0" encoding="utf-8"?>
<!-- Generator: Adobe Illustrator 19.0.0, SVG Export Plug-In . SVG Version: 6.00 Build 0)  -->
<svg version="1.1" id="Layer_1" xmlns="http://www.w3.org/2000/svg" xmlns:xlink="http://www.w3.org/1999/xlink" x="0px" y="0px"
	 width="424.3px" height="424.3px" viewBox="0 0 424.3 424.3" style="enable-background:new 0 0 424.3 424.3;" xml:space="preserve"
	>
<style type="text/css">
	.st0{fill:url(#SVGID_1_);}
	.st1{fill:#FFFFFF;}
	.st2{fill:#AADAF5;}
	.st3{fill:#045977;}
</style>
<linearGradient id="SVGID_1_" gradientUnits="userSpaceOnUse" x1="212.1481" y1="9.0009" x2="212.1481" y2="433.297">
	<stop  offset="0" style="stop-color:#0CA3DD"/>
	<stop  offset="1" style="stop-color:#0296CC"/>
</linearGradient>
<circle class="st0" cx="212.1" cy="212.1" r="212.1"/>
<g>
	<path class="st1" d="M369.9,197.3c-2.9-3.8-72.6-93.3-161.5-93.3S49.8,193.5,46.9,197.3c-3.5,4.5-3.5,10.8,0,15.4
		c2.9,3.8,72.6,93.3,161.5,93.3s158.6-89.5,161.5-93.3C373.3,208.1,373.3,201.8,369.9,197.3z"/>
	<path class="st2" d="M284.1,205c0,39.1-29.7,71.3-67.8,75.3c-2.6,0.2-5.3,0.4-8,0.4c-2.7,0-5.3-0.2-8-0.4
		c-38-4-67.8-36.2-67.8-75.3c0-39.1,29.7-71.3,67.8-75.3c2.6-0.2,5.3-0.4,8-0.4c2.7,0,5.3,0.2,8,0.4
		C254.4,133.7,284.1,165.9,284.1,205z"/>
	<path class="st2" d="M73.4,205c7.9-9,22.6-24.5,41.9-39.1c-5.1,12-7.9,25.2-7.9,39.1c0,13.8,2.8,27,7.9,39
		C96,229.4,81.3,214,73.4,205z"/>
	<path class="st2" d="M301.5,244.1c5.1-12,7.9-25.2,7.9-39.1c0-13.8-2.8-27-7.9-39c19.2,14.6,34,30.1,41.9,39
		C335.5,214,320.7,229.5,301.5,244.1z"/>
	<path class="st3" d="M254.9,196.2c0.5,2.8,0.8,5.8,0.8,8.8c0,26.1-21.2,47.3-47.3,47.3c-26.1,0-47.3-21.2-47.3-47.3
		c0-26.1,21.2-47.3,47.3-47.3c3,0,5.9,0.3,8.8,0.8c-14,3.2-24.5,15.7-24.5,30.7c0,17.4,14.1,31.6,31.6,31.6
		C239.2,220.7,251.7,210.2,254.9,196.2z"/>
</g>
<g>
	<path class="st3" d="M391.2,294.7l-45.1-45.1c6-9.2,9.4-20.1,9.4-31.9c0-32.4-26.3-58.7-58.7-58.7c-32.4,0-58.7,26.3-58.7,58.7
		c0,32.4,26.3,58.7,58.7,58.7c11.7,0,22.6-3.5,31.8-9.4l45.1,45.1c1.2,1.2,3.2,1.2,4.4,0l13.1-13.1
		C392.4,297.8,392.4,295.9,391.2,294.7z M296.8,251.7c-18.8,0-34-15.3-34-34c0-18.7,15.3-34,34-34c18.7,0,34,15.3,34,34
		C330.9,236.5,315.6,251.7,296.8,251.7z"/>
	<path class="st2" d="M296.8,251.7c-18.8,0-34-15.3-34-34c0-18.7,15.3-34,34-34c18.7,0,34,15.3,34,34
		C330.9,236.5,315.6,251.7,296.8,251.7z"/>
</g>
</svg>
